<svg width="115" height="396" viewBox="0 0 115 396" fill="none" xmlns="http://www.w3.org/2000/svg">
<circle cx="112.5" cy="2.5" r="2.5" fill="#F8D3E1"/>
<circle cx="90.5" cy="2.5" r="2.5" fill="#F8D3E1"/>
<circle cx="68.5" cy="2.5" r="2.5" fill="#F8D3E1"/>
<circle cx="46.5" cy="2.5" r="2.5" fill="#F8D3E1"/>
<circle cx="24.5" cy="2.5" r="2.5" fill="#F8D3E1"/>
<circle cx="2.5" cy="2.5" r="2.5" fill="#F8D3E1"/>
<circle cx="112.5" cy="19.5" r="2.5" fill="#F8D3E1"/>
<circle cx="90.5" cy="19.5" r="2.5" fill="#F8D3E1"/>
<circle cx="68.5" cy="19.5" r="2.5" fill="#F8D3E1"/>
<circle cx="46.5" cy="19.5" r="2.5" fill="#F8D3E1"/>
<circle cx="24.5" cy="19.5" r="2.5" fill="#F8D3E1"/>
<circle cx="2.5" cy="19.5" r="2.5" fill="#F8D3E1"/>
<circle cx="112.5" cy="36.5" r="2.5" fill="#F8D3E1"/>
<circle cx="90.5" cy="36.5" r="2.5" fill="#F8D3E1"/>
<circle cx="68.5" cy="36.5" r="2.5" fill="#F8D3E1"/>
<circle cx="46.5" cy="36.5" r="2.5" fill="#F8D3E1"/>
<circle cx="24.5" cy="36.5" r="2.5" fill="#F8D3E1"/>
<circle cx="2.5" cy="36.5" r="2.5" fill="#F8D3E1"/>
<circle cx="112.5" cy="53.5" r="2.5" fill="#F8D3E1"/>
<circle cx="90.5" cy="53.5" r="2.5" fill="#F8D3E1"/>
<circle cx="68.5" cy="53.5" r="2.5" fill="#F8D3E1"/>
<circle cx="46.5" cy="53.5" r="2.5" fill="#F8D3E1"/>
<circle cx="24.5" cy="53.5" r="2.5" fill="#F8D3E1"/>
<circle cx="2.5" cy="53.5" r="2.5" fill="#F8D3E1"/>
<circle cx="112.5" cy="70.5" r="2.5" fill="#F8D3E1"/>
<circle cx="90.5" cy="70.5" r="2.5" fill="#F8D3E1"/>
<circle cx="68.5" cy="70.5" r="2.5" fill="#F8D3E1"/>
<circle cx="46.5" cy="70.5" r="2.5" fill="#F8D3E1"/>
<circle cx="24.5" cy="70.5" r="2.5" fill="#F8D3E1"/>
<circle cx="2.5" cy="70.5" r="2.5" fill="#F8D3E1"/>
<circle cx="112.5" cy="87.5" r="2.5" fill="#F8D3E1"/>
<circle cx="90.5" cy="87.5" r="2.5" fill="#F8D3E1"/>
<circle cx="68.5" cy="87.5" r="2.5" fill="#F8D3E1"/>
<circle cx="46.5" cy="87.5" r="2.5" fill="#F8D3E1"/>
<circle cx="24.5" cy="87.5" r="2.5" fill="#F8D3E1"/>
<circle cx="2.5" cy="87.5" r="2.5" fill="#F8D3E1"/>
<circle cx="112.5" cy="104.5" r="2.5" fill="#F8D3E1"/>
<circle cx="90.5" cy="104.5" r="2.5" fill="#F8D3E1"/>
<circle cx="68.5" cy="104.5" r="2.5" fill="#F8D3E1"/>
<circle cx="46.5" cy="104.5" r="2.5" fill="#F8D3E1"/>
<circle cx="24.5" cy="104.5" r="2.5" fill="#F8D3E1"/>
<circle cx="2.5" cy="104.5" r="2.5" fill="#F8D3E1"/>
<circle cx="112.5" cy="121.5" r="2.5" fill="#F8D3E1"/>
<circle cx="90.5" cy="121.5" r="2.5" fill="#F8D3E1"/>
<circle cx="68.5" cy="121.5" r="2.5" fill="#F8D3E1"/>
<circle cx="46.5" cy="121.5" r="2.5" fill="#F8D3E1"/>
<circle cx="24.5" cy="121.5" r="2.5" fill="#F8D3E1"/>
<circle cx="2.5" cy="121.5" r="2.5" fill="#F8D3E1"/>
<circle cx="112.5" cy="138.5" r="2.5" fill="#F8D3E1"/>
<circle cx="90.5" cy="138.5" r="2.5" fill="#F8D3E1"/>
<circle cx="68.5" cy="138.5" r="2.5" fill="#F8D3E1"/>
<circle cx="46.5" cy="138.5" r="2.5" fill="#F8D3E1"/>
<circle cx="24.5" cy="138.5" r="2.5" fill="#F8D3E1"/>
<circle cx="2.5" cy="138.5" r="2.5" fill="#F8D3E1"/>
<circle cx="112.5" cy="155.5" r="2.5" fill="#F8D3E1"/>
<circle cx="90.5" cy="155.5" r="2.5" fill="#F8D3E1"/>
<circle cx="68.5" cy="155.5" r="2.5" fill="#F8D3E1"/>
<circle cx="46.5" cy="155.5" r="2.5" fill="#F8D3E1"/>
<circle cx="24.5" cy="155.5" r="2.5" fill="#F8D3E1"/>
<circle cx="2.5" cy="155.5" r="2.5" fill="#F8D3E1"/>
<circle cx="112.5" cy="172.5" r="2.5" fill="#F8D3E1"/>
<circle cx="90.5" cy="172.5" r="2.5" fill="#F8D3E1"/>
<circle cx="68.5" cy="172.5" r="2.5" fill="#F8D3E1"/>
<circle cx="46.5" cy="172.5" r="2.5" fill="#F8D3E1"/>
<circle cx="24.5" cy="172.5" r="2.5" fill="#F8D3E1"/>
<circle cx="2.5" cy="172.5" r="2.5" fill="#F8D3E1"/>
<circle cx="112.5" cy="189.5" r="2.5" fill="#F8D3E1"/>
<circle cx="90.5" cy="189.5" r="2.5" fill="#F8D3E1"/>
<circle cx="68.5" cy="189.5" r="2.5" fill="#F8D3E1"/>
<circle cx="46.5" cy="189.5" r="2.5" fill="#F8D3E1"/>
<circle cx="24.5" cy="189.5" r="2.5" fill="#F8D3E1"/>
<circle cx="2.5" cy="189.5" r="2.5" fill="#F8D3E1"/>
<circle cx="112.5" cy="206.5" r="2.5" fill="#F8D3E1"/>
<circle cx="90.5" cy="206.5" r="2.5" fill="#F8D3E1"/>
<circle cx="68.5" cy="206.5" r="2.5" fill="#F8D3E1"/>
<circle cx="46.5" cy="206.5" r="2.5" fill="#F8D3E1"/>
<circle cx="24.5" cy="206.5" r="2.5" fill="#F8D3E1"/>
<circle cx="2.5" cy="206.5" r="2.5" fill="#F8D3E1"/>
<circle cx="112.5" cy="223.5" r="2.5" fill="#F8D3E1"/>
<circle cx="90.5" cy="223.5" r="2.5" fill="#F8D3E1"/>
<circle cx="68.5" cy="223.5" r="2.5" fill="#F8D3E1"/>
<circle cx="46.5" cy="223.5" r="2.5" fill="#F8D3E1"/>
<circle cx="24.5" cy="223.5" r="2.5" fill="#F8D3E1"/>
<circle cx="2.5" cy="223.5" r="2.5" fill="#F8D3E1"/>
<circle cx="112.5" cy="240.5" r="2.5" fill="#F8D3E1"/>
<circle cx="90.5" cy="240.5" r="2.5" fill="#F8D3E1"/>
<circle cx="68.5" cy="240.5" r="2.5" fill="#F8D3E1"/>
<circle cx="46.5" cy="240.5" r="2.5" fill="#F8D3E1"/>
<circle cx="24.5" cy="240.5" r="2.5" fill="#F8D3E1"/>
<circle cx="2.5" cy="240.5" r="2.5" fill="#F8D3E1"/>
<circle cx="112.5" cy="257.5" r="2.5" fill="#F8D3E1"/>
<circle cx="90.5" cy="257.5" r="2.5" fill="#F8D3E1"/>
<circle cx="68.5" cy="257.5" r="2.5" fill="#F8D3E1"/>
<circle cx="46.5" cy="257.5" r="2.5" fill="#F8D3E1"/>
<circle cx="24.5" cy="257.5" r="2.5" fill="#F8D3E1"/>
<circle cx="2.5" cy="257.5" r="2.5" fill="#F8D3E1"/>
<circle cx="112.5" cy="274.5" r="2.5" fill="#F8D3E1"/>
<circle cx="90.5" cy="274.5" r="2.5" fill="#F8D3E1"/>
<circle cx="68.5" cy="274.5" r="2.5" fill="#F8D3E1"/>
<circle cx="46.5" cy="274.5" r="2.5" fill="#F8D3E1"/>
<circle cx="24.5" cy="274.5" r="2.5" fill="#F8D3E1"/>
<circle cx="2.5" cy="274.5" r="2.5" fill="#F8D3E1"/>
<circle cx="112.5" cy="291.5" r="2.5" fill="#F8D3E1"/>
<circle cx="90.5" cy="291.5" r="2.5" fill="#F8D3E1"/>
<circle cx="68.5" cy="291.5" r="2.5" fill="#F8D3E1"/>
<circle cx="46.5" cy="291.5" r="2.5" fill="#F8D3E1"/>
<circle cx="24.5" cy="291.5" r="2.5" fill="#F8D3E1"/>
<circle cx="2.5" cy="291.5" r="2.5" fill="#F8D3E1"/>
<circle cx="112.5" cy="308.5" r="2.5" fill="#F8D3E1"/>
<circle cx="90.5" cy="308.5" r="2.5" fill="#F8D3E1"/>
<circle cx="68.5" cy="308.5" r="2.5" fill="#F8D3E1"/>
<circle cx="46.5" cy="308.5" r="2.5" fill="#F8D3E1"/>
<circle cx="24.5" cy="308.5" r="2.5" fill="#F8D3E1"/>
<circle cx="2.5" cy="308.5" r="2.5" fill="#F8D3E1"/>
<circle cx="112.5" cy="325.5" r="2.5" fill="#F8D3E1"/>
<circle cx="90.5" cy="325.5" r="2.5" fill="#F8D3E1"/>
<circle cx="68.5" cy="325.5" r="2.5" fill="#F8D3E1"/>
<circle cx="46.5" cy="325.5" r="2.5" fill="#F8D3E1"/>
<circle cx="24.5" cy="325.5" r="2.5" fill="#F8D3E1"/>
<circle cx="2.5" cy="325.5" r="2.5" fill="#F8D3E1"/>
<circle cx="112.5" cy="342.5" r="2.5" fill="#F8D3E1"/>
<circle cx="90.5" cy="342.5" r="2.5" fill="#F8D3E1"/>
<circle cx="68.5" cy="342.5" r="2.5" fill="#F8D3E1"/>
<circle cx="46.5" cy="342.5" r="2.5" fill="#F8D3E1"/>
<circle cx="24.5" cy="342.5" r="2.5" fill="#F8D3E1"/>
<circle cx="2.5" cy="342.5" r="2.5" fill="#F8D3E1"/>
<circle cx="112.5" cy="359.5" r="2.5" fill="#F8D3E1"/>
<circle cx="90.5" cy="359.5" r="2.5" fill="#F8D3E1"/>
<circle cx="68.5" cy="359.5" r="2.5" fill="#F8D3E1"/>
<circle cx="46.5" cy="359.5" r="2.5" fill="#F8D3E1"/>
<circle cx="24.5" cy="359.5" r="2.5" fill="#F8D3E1"/>
<circle cx="2.5" cy="359.5" r="2.5" fill="#F8D3E1"/>
<circle cx="112.5" cy="376.5" r="2.5" fill="#F8D3E1"/>
<circle cx="90.5" cy="376.5" r="2.5" fill="#F8D3E1"/>
<circle cx="68.5" cy="376.5" r="2.5" fill="#F8D3E1"/>
<circle cx="46.5" cy="376.5" r="2.5" fill="#F8D3E1"/>
<circle cx="24.5" cy="376.5" r="2.5" fill="#F8D3E1"/>
<circle cx="2.5" cy="376.5" r="2.5" fill="#F8D3E1"/>
<circle cx="112.5" cy="393.5" r="2.5" fill="#F8D3E1"/>
<circle cx="90.5" cy="393.5" r="2.5" fill="#F8D3E1"/>
<circle cx="68.5" cy="393.5" r="2.5" fill="#F8D3E1"/>
<circle cx="46.5" cy="393.5" r="2.5" fill="#F8D3E1"/>
<circle cx="24.5" cy="393.5" r="2.5" fill="#F8D3E1"/>
<circle cx="2.5" cy="393.5" r="2.5" fill="#F8D3E1"/>
</svg>
